<svg width="25" height="25" viewBox="0 0 25 25" fill="none" xmlns="http://www.w3.org/2000/svg">
<path d="M21.4844 2.73438H3.51562C3.0835 2.73438 2.73438 3.0835 2.73438 3.51562V21.4844C2.73438 21.9165 3.0835 22.2656 3.51562 22.2656H21.4844C21.9165 22.2656 22.2656 21.9165 22.2656 21.4844V3.51562C22.2656 3.0835 21.9165 2.73438 21.4844 2.73438ZM20.7031 20.7031H16.2085V14.7021H18.7476L19.1284 11.7554H16.2085V9.87305C16.2085 9.01855 16.4453 8.4375 17.6685 8.4375H19.2285V5.80078C18.9575 5.76416 18.0322 5.68359 16.9531 5.68359C14.7021 5.68359 13.1616 7.05811 13.1616 9.58008V11.7529H10.6177V14.6997H13.1641V20.7031H4.29688V4.29688H20.7031V20.7031Z" fill="white"/>
</svg>
