<svg width="44" height="44" viewBox="0 0 44 44" fill="none" xmlns="http://www.w3.org/2000/svg">
<path d="M17.7705 19.0108H22.2659C22.7428 19.0108 23.2001 18.8213 23.5373 18.4841C23.8746 18.1469 24.064 17.6895 24.064 17.2127C24.064 16.7358 23.8746 16.2784 23.5373 15.9412C23.2001 15.604 22.7428 15.4145 22.2659 15.4145H20.4677V14.5154C20.4677 14.0386 20.2783 13.5812 19.9411 13.244C19.6039 12.9068 19.1465 12.7173 18.6696 12.7173C18.1927 12.7173 17.7353 12.9068 17.3981 13.244C17.0609 13.5812 16.8715 14.0386 16.8715 14.5154V15.5044C15.779 15.7263 14.8078 16.3461 14.1467 17.2437C13.4855 18.1413 13.1814 19.2525 13.2934 20.3616C13.4055 21.4708 13.9256 22.4988 14.753 23.246C15.5803 23.9932 16.6557 24.4063 17.7705 24.4052H19.5687C19.8071 24.4052 20.0358 24.4999 20.2044 24.6685C20.373 24.8371 20.4677 25.0658 20.4677 25.3043C20.4677 25.5427 20.373 25.7714 20.2044 25.94C20.0358 26.1086 19.8071 26.2033 19.5687 26.2033H15.0733C14.5964 26.2033 14.1391 26.3928 13.8018 26.73C13.4646 27.0672 13.2752 27.5246 13.2752 28.0015C13.2752 28.4784 13.4646 28.9357 13.8018 29.2729C14.1391 29.6102 14.5964 29.7996 15.0733 29.7996H16.8715V30.6987C16.8715 31.1756 17.0609 31.6329 17.3981 31.9702C17.7353 32.3074 18.1927 32.4968 18.6696 32.4968C19.1465 32.4968 19.6039 32.3074 19.9411 31.9702C20.2783 31.6329 20.4677 31.1756 20.4677 30.6987V29.7097C21.5602 29.4879 22.5313 28.868 23.1925 27.9704C23.8537 27.0729 24.1578 25.9616 24.0458 24.8525C23.9337 23.7433 23.4136 22.7154 22.5862 21.9682C21.7589 21.221 20.6835 20.8078 19.5687 20.8089H17.7705C17.5321 20.8089 17.3034 20.7142 17.1348 20.5456C16.9662 20.377 16.8715 20.1483 16.8715 19.9099C16.8715 19.6714 16.9662 19.4427 17.1348 19.2741C17.3034 19.1055 17.5321 19.0108 17.7705 19.0108ZM38.4491 21.708H33.0547V5.52477C33.0559 5.20792 32.9735 4.89636 32.8156 4.62164C32.6577 4.34693 32.43 4.11881 32.1556 3.96039C31.8823 3.80257 31.5722 3.71948 31.2566 3.71948C30.9409 3.71948 30.6308 3.80257 30.3575 3.96039L24.9631 7.05318L19.5687 3.96039C19.2953 3.80257 18.9852 3.71948 18.6696 3.71948C18.354 3.71948 18.0439 3.80257 17.7705 3.96039L12.3761 7.05318L6.9817 3.96039C6.70835 3.80257 6.39827 3.71948 6.08264 3.71948C5.767 3.71948 5.45692 3.80257 5.18357 3.96039C4.90916 4.11881 4.68149 4.34693 4.52361 4.62164C4.36573 4.89636 4.28324 5.20792 4.2845 5.52477V34.295C4.2845 35.7256 4.85284 37.0977 5.86449 38.1094C6.87613 39.121 8.24822 39.6894 9.67891 39.6894H34.8528C36.2835 39.6894 37.6556 39.121 38.6672 38.1094C39.6789 37.0977 40.2472 35.7256 40.2472 34.295V23.5061C40.2472 23.0292 40.0578 22.5719 39.7206 22.2347C39.3834 21.8974 38.926 21.708 38.4491 21.708ZM9.67891 36.0931C9.20201 36.0931 8.74465 35.9036 8.40743 35.5664C8.07022 35.2292 7.88077 34.7718 7.88077 34.295V8.63554L11.477 10.6854C11.7546 10.8304 12.063 10.9061 12.3761 10.9061C12.6892 10.9061 12.9977 10.8304 13.2752 10.6854L18.6696 7.59262L24.064 10.6854C24.3415 10.8304 24.65 10.9061 24.9631 10.9061C25.2762 10.9061 25.5846 10.8304 25.8621 10.6854L29.4584 8.63554V34.295C29.4633 34.9084 29.5727 35.5165 29.7821 36.0931H9.67891ZM36.651 34.295C36.651 34.7718 36.4615 35.2292 36.1243 35.5664C35.7871 35.9036 35.3297 36.0931 34.8528 36.0931C34.3759 36.0931 33.9186 35.9036 33.5813 35.5664C33.2441 35.2292 33.0547 34.7718 33.0547 34.295V25.3043H36.651V34.295Z" fill="#C0C0C0"/>
</svg>
