<svg width="40" height="40" viewBox="0 0 40 40" fill="none" xmlns="http://www.w3.org/2000/svg">
<path d="M6.25006 5C5.91854 5 5.6006 5.1317 5.36618 5.36612C5.13176 5.60054 5.00006 5.91848 5.00006 6.25C5.00006 6.58152 5.13176 6.89946 5.36618 7.13388C5.6006 7.3683 5.91854 7.5 6.25006 7.5H6.86506C7.13649 7.50047 7.40039 7.58928 7.61688 7.753C7.83337 7.91672 7.99069 8.14646 8.06506 8.4075L12.0301 22.2825C12.2543 23.0655 12.7274 23.7542 13.3778 24.2445C14.0282 24.7348 14.8206 25 15.6351 25H27.0576C27.8072 25.0001 28.5396 24.7756 29.1604 24.3554C29.7811 23.9351 30.2617 23.3385 30.5401 22.6425L34.2251 13.4275C34.3765 13.0483 34.4329 12.6378 34.3891 12.2318C34.3452 11.8259 34.2027 11.4368 33.9738 11.0986C33.7449 10.7605 33.4367 10.4836 33.0761 10.292C32.7154 10.1005 32.3134 10.0003 31.9051 10H11.1201L10.4676 7.72C10.2439 6.93693 9.77135 6.24797 9.12141 5.75724C8.47147 5.26652 7.67945 5.00071 6.86506 5H6.25006ZM14.4351 21.5925L11.8351 12.5H31.9026L28.2176 21.715C28.1247 21.9467 27.9646 22.1453 27.7578 22.2852C27.5511 22.4251 27.3072 22.4999 27.0576 22.5H15.6351C15.3636 22.4995 15.0997 22.4107 14.8832 22.247C14.6667 22.0833 14.5094 21.8535 14.4351 21.5925Z" fill="#5B5B5B"/>
<path d="M16.2501 35C16.7425 35 17.2302 34.903 17.6851 34.7145C18.1401 34.5261 18.5535 34.2499 18.9017 33.9017C19.2499 33.5534 19.5262 33.14 19.7146 32.6851C19.9031 32.2301 20.0001 31.7425 20.0001 31.25C20.0001 30.7575 19.9031 30.2699 19.7146 29.8149C19.5262 29.36 19.2499 28.9466 18.9017 28.5983C18.5535 28.2501 18.1401 27.9739 17.6851 27.7855C17.2302 27.597 16.7425 27.5 16.2501 27.5C15.2555 27.5 14.3017 27.8951 13.5984 28.5983C12.8951 29.3016 12.5001 30.2554 12.5001 31.25C12.5001 32.2446 12.8951 33.1984 13.5984 33.9017C14.3017 34.6049 15.2555 35 16.2501 35ZM16.2501 32.5C15.9185 32.5 15.6006 32.3683 15.3662 32.1339C15.1318 31.8995 15.0001 31.5815 15.0001 31.25C15.0001 30.9185 15.1318 30.6005 15.3662 30.3661C15.6006 30.1317 15.9185 30 16.2501 30C16.5816 30 16.8995 30.1317 17.1339 30.3661C17.3684 30.6005 17.5001 30.9185 17.5001 31.25C17.5001 31.5815 17.3684 31.8995 17.1339 32.1339C16.8995 32.3683 16.5816 32.5 16.2501 32.5Z" fill="#5B5B5B"/>
<path d="M26.2501 35C26.7425 35 27.2302 34.903 27.6851 34.7145C28.1401 34.5261 28.5535 34.2499 28.9017 33.9017C29.2499 33.5534 29.5262 33.14 29.7146 32.6851C29.9031 32.2301 30.0001 31.7425 30.0001 31.25C30.0001 30.7575 29.9031 30.2699 29.7146 29.8149C29.5262 29.36 29.2499 28.9466 28.9017 28.5983C28.5535 28.2501 28.1401 27.9739 27.6851 27.7855C27.2302 27.597 26.7425 27.5 26.2501 27.5C25.2555 27.5 24.3017 27.8951 23.5984 28.5983C22.8951 29.3016 22.5001 30.2554 22.5001 31.25C22.5001 32.2446 22.8951 33.1984 23.5984 33.9017C24.3017 34.6049 25.2555 35 26.2501 35ZM26.2501 32.5C25.9185 32.5 25.6006 32.3683 25.3662 32.1339C25.1318 31.8995 25.0001 31.5815 25.0001 31.25C25.0001 30.9185 25.1318 30.6005 25.3662 30.3661C25.6006 30.1317 25.9185 30 26.2501 30C26.5816 30 26.8995 30.1317 27.1339 30.3661C27.3684 30.6005 27.5001 30.9185 27.5001 31.25C27.5001 31.5815 27.3684 31.8995 27.1339 32.1339C26.8995 32.3683 26.5816 32.5 26.2501 32.5Z" fill="#5B5B5B"/>
</svg>
