<svg width="45" height="45" viewBox="0 0 45 45" fill="none" xmlns="http://www.w3.org/2000/svg">
<path d="M18.2812 19.6875V30.9375C18.2812 31.3105 18.4294 31.6681 18.6931 31.9319C18.9569 32.1956 19.3145 32.3438 19.6875 32.3438C20.0605 32.3438 20.4181 32.1956 20.6819 31.9319C20.9456 31.6681 21.0938 31.3105 21.0938 30.9375V19.6875C21.0938 19.3145 20.9456 18.9569 20.6819 18.6931C20.4181 18.4294 20.0605 18.2812 19.6875 18.2812C19.3145 18.2812 18.9569 18.4294 18.6931 18.6931C18.4294 18.9569 18.2812 19.3145 18.2812 19.6875Z" fill="#5B5B5B"/>
<path d="M25.3125 18.2812C25.6855 18.2812 26.0431 18.4294 26.3069 18.6931C26.5706 18.9569 26.7188 19.3145 26.7188 19.6875V30.9375C26.7188 31.3105 26.5706 31.6681 26.3069 31.9319C26.0431 32.1956 25.6855 32.3438 25.3125 32.3438C24.9395 32.3438 24.5819 32.1956 24.3181 31.9319C24.0544 31.6681 23.9062 31.3105 23.9062 30.9375V19.6875C23.9062 19.3145 24.0544 18.9569 24.3181 18.6931C24.5819 18.4294 24.9395 18.2812 25.3125 18.2812Z" fill="#5B5B5B"/>
<path d="M28.125 11.25H36.5625C36.9355 11.25 37.2931 11.3982 37.5569 11.6619C37.8206 11.9256 37.9688 12.2833 37.9688 12.6562C37.9688 13.0292 37.8206 13.3869 37.5569 13.6506C37.2931 13.9143 36.9355 14.0625 36.5625 14.0625H35.0072L32.8922 33.12C32.7011 34.84 31.8825 36.429 30.593 37.5831C29.3035 38.7372 27.6337 39.3752 25.9031 39.375H19.0969C17.3663 39.3752 15.6965 38.7372 14.407 37.5831C13.1175 36.429 12.2989 34.84 12.1078 33.12L9.99 14.0625H8.4375C8.06454 14.0625 7.70685 13.9143 7.44313 13.6506C7.17941 13.3869 7.03125 13.0292 7.03125 12.6562C7.03125 12.2833 7.17941 11.9256 7.44313 11.6619C7.70685 11.3982 8.06454 11.25 8.4375 11.25H16.875C16.875 9.75816 17.4676 8.32742 18.5225 7.27252C19.5774 6.21763 21.0082 5.625 22.5 5.625C23.9918 5.625 25.4226 6.21763 26.4775 7.27252C27.5324 8.32742 28.125 9.75816 28.125 11.25V11.25ZM22.5 8.4375C21.7541 8.4375 21.0387 8.73382 20.5113 9.26126C19.9838 9.78871 19.6875 10.5041 19.6875 11.25H25.3125C25.3125 10.5041 25.0162 9.78871 24.4887 9.26126C23.9613 8.73382 23.2459 8.4375 22.5 8.4375V8.4375ZM12.8222 14.0625L14.9034 32.8106C15.0183 33.8424 15.5096 34.7956 16.2833 35.4878C17.057 36.18 18.0587 36.5626 19.0969 36.5625H25.9031C26.9408 36.562 27.9419 36.179 28.7149 35.4869C29.488 34.7947 29.9789 33.8419 30.0937 32.8106L32.1806 14.0625H12.825H12.8222Z" fill="#5B5B5B"/>
</svg>
