<svg width="43" height="43" viewBox="0 0 43 43" fill="none" xmlns="http://www.w3.org/2000/svg">
<path d="M34.0416 12.5417C34.0416 10.5709 32.4291 8.95837 30.4583 8.95837H25.0833V12.5417H30.4583V17.2896L24.2233 25.0834H17.9166V16.125H10.75C6.7904 16.125 3.58331 19.3321 3.58331 23.2917V28.6667H7.16665C7.16665 31.6409 9.56748 34.0417 12.5416 34.0417C15.5158 34.0417 17.9166 31.6409 17.9166 28.6667H25.9433L34.0416 18.5438V12.5417ZM7.16665 25.0834V23.2917C7.16665 21.3209 8.77915 19.7084 10.75 19.7084H14.3333V25.0834H7.16665ZM12.5416 30.4584C11.5562 30.4584 10.75 29.6521 10.75 28.6667H14.3333C14.3333 29.6521 13.5271 30.4584 12.5416 30.4584Z" fill="#C0C0C0"/>
<path d="M8.95831 10.75H17.9166V14.3333H8.95831V10.75ZM34.0416 23.2917C31.0675 23.2917 28.6666 25.6925 28.6666 28.6667C28.6666 31.6408 31.0675 34.0417 34.0416 34.0417C37.0158 34.0417 39.4166 31.6408 39.4166 28.6667C39.4166 25.6925 37.0158 23.2917 34.0416 23.2917ZM34.0416 30.4583C33.0562 30.4583 32.25 29.6521 32.25 28.6667C32.25 27.6813 33.0562 26.875 34.0416 26.875C35.0271 26.875 35.8333 27.6813 35.8333 28.6667C35.8333 29.6521 35.0271 30.4583 34.0416 30.4583Z" fill="#C0C0C0"/>
</svg>
