<svg width="20" height="18" viewBox="0 0 20 18" fill="none" xmlns="http://www.w3.org/2000/svg">
<g clip-path="url(#clip0)">
<path d="M13.9687 11.8544L15.0799 10.7544C15.2535 10.5826 15.5556 10.7029 15.5556 10.9504V15.9485C15.5556 16.8594 14.809 17.5985 13.8889 17.5985H1.66667C0.746528 17.5985 0 16.8594 0 15.9485V3.84849C0 2.93755 0.746528 2.19849 1.66667 2.19849H11.1632C11.4097 2.19849 11.5347 2.49411 11.3611 2.66943L10.25 3.76943C10.1979 3.82099 10.1285 3.84849 10.0521 3.84849H1.66667V15.9485H13.8889V12.0469C13.8889 11.9747 13.9167 11.906 13.9687 11.8544ZM19.4062 4.91755L10.2882 13.9444L7.1493 14.2882C6.23958 14.3879 5.46528 13.6282 5.56597 12.7207L5.91319 9.61318L15.0312 0.586301C15.8264 -0.200886 17.1111 -0.200886 17.9028 0.586301L19.4028 2.0713C20.1979 2.85849 20.1979 4.1338 19.4062 4.91755ZM15.9757 5.97974L13.9583 3.98255L7.50694 10.3729L7.25347 12.6176L9.52083 12.3666L15.9757 5.97974ZM18.2257 3.24005L16.7257 1.75505C16.5833 1.61411 16.3507 1.61411 16.2118 1.75505L15.1389 2.81724L17.1562 4.81443L18.2292 3.75224C18.3681 3.60786 18.3681 3.38099 18.2257 3.24005Z" fill="#B5B5B5"/>
</g>
<defs>
<clipPath id="clip0">
<rect width="20" height="17.6" fill="white"/>
</clipPath>
</defs>
</svg>
