<svg width="50" height="50" viewBox="0 0 50 50" fill="none" xmlns="http://www.w3.org/2000/svg">
<path d="M40.7275 22.9102C39.7796 20.7766 38.4016 18.8617 36.6797 17.2852L35.2588 15.9814C35.2105 15.9384 35.1525 15.9078 35.0897 15.8925C35.0269 15.8771 34.9612 15.8774 34.8986 15.8933C34.8359 15.9092 34.7781 15.9403 34.7302 15.9837C34.6824 16.0272 34.6459 16.0817 34.624 16.1426L33.9893 17.9639C33.5937 19.1064 32.8662 20.2734 31.8359 21.4209C31.7676 21.4941 31.6895 21.5137 31.6357 21.5186C31.582 21.5234 31.499 21.5137 31.4258 21.4453C31.3574 21.3867 31.3232 21.2988 31.3281 21.2109C31.5088 18.2715 30.6299 14.9561 28.7061 11.3477C27.1143 8.34961 24.9023 6.01075 22.1387 4.37989L20.1221 3.19336C19.8584 3.03711 19.5215 3.24219 19.5361 3.54981L19.6436 5.89356C19.7168 7.49512 19.5312 8.91114 19.0918 10.0879C18.5547 11.5283 17.7832 12.8662 16.7969 14.0674C16.1105 14.9022 15.3325 15.6572 14.4775 16.3184C12.4185 17.9012 10.7442 19.9294 9.58008 22.251C8.41882 24.5928 7.81392 27.1712 7.8125 29.7852C7.8125 32.0898 8.2666 34.3213 9.16504 36.4258C10.0326 38.452 11.2845 40.2909 12.8516 41.8408C14.4336 43.4033 16.2695 44.6338 18.3154 45.4883C20.4346 46.3769 22.6807 46.8262 25 46.8262C27.3193 46.8262 29.5654 46.377 31.6846 45.4932C33.7254 44.6437 35.5813 43.4048 37.1484 41.8457C38.7305 40.2832 39.9707 38.457 40.835 36.4307C41.732 34.3319 42.1922 32.0725 42.1875 29.79C42.1875 27.4072 41.6992 25.0928 40.7275 22.9102ZM34.8145 39.4775C32.1924 42.0752 28.7109 43.501 25 43.501C21.2891 43.501 17.8076 42.0752 15.1855 39.4775C12.5732 36.8848 11.1328 33.4473 11.1328 29.79C11.1328 27.666 11.6113 25.6299 12.5537 23.7354C13.4717 21.8848 14.8389 20.2295 16.499 18.9551C17.5578 18.1455 18.5181 17.2147 19.3604 16.1816C20.5811 14.6924 21.5381 13.0322 22.2021 11.25C22.4745 10.5148 22.6725 9.75419 22.793 8.97949C23.9697 10.0635 24.9561 11.3721 25.7812 12.9053C27.4121 15.9619 28.1641 18.6816 28.0176 20.9961C27.9826 21.5412 28.0716 22.0871 28.278 22.5929C28.4843 23.0986 28.8026 23.551 29.209 23.916C29.5611 24.2341 29.973 24.4791 30.4206 24.6367C30.8682 24.7942 31.3426 24.8613 31.8164 24.834C32.7783 24.7852 33.6621 24.3604 34.3066 23.6426C34.9561 22.915 35.5176 22.1729 35.9863 21.416C36.6699 22.29 37.2412 23.2422 37.6953 24.2676C38.4717 26.0156 38.8672 27.876 38.8672 29.79C38.8672 33.4473 37.4268 36.8896 34.8145 39.4775Z" fill="black"/>
</svg>
