<svg width="50" height="50" viewBox="0 0 50 50" fill="none" xmlns="http://www.w3.org/2000/svg">
<path d="M34.375 25L25 46.875L18.9453 32.7148" stroke="#B5B5B5" stroke-width="3" stroke-linecap="round" stroke-linejoin="round"/>
<path d="M29.2402 21.8242C28.4902 23.4131 26.873 24.6094 25 24.6094C23.7207 24.6094 22.3633 24.1211 21.7158 23.6563C21.1201 23.2295 20.3125 23.4375 20.3125 24.4141V30.4688C20.3107 31.0898 20.0632 31.6849 19.624 32.124C19.1849 32.5632 18.5898 32.8107 17.9688 32.8125V32.8125C17.3477 32.8107 16.7526 32.5632 16.3135 32.124C15.8743 31.6849 15.6268 31.0898 15.625 30.4688V25H15.4297C11.9775 25 9.375 22.2021 9.375 18.75C9.375 17.0924 10.0335 15.5027 11.2056 14.3306C12.3777 13.1585 13.9674 12.5 15.625 12.5H16.4062V11.7188C16.4062 9.43955 17.3117 7.25369 18.9233 5.64205C20.5349 4.03041 22.7208 3.125 25 3.125C27.2792 3.125 29.4651 4.03041 31.0767 5.64205C32.6883 7.25369 33.5938 9.43955 33.5938 11.7188V12.5H34.375C36.0326 12.5 37.6223 13.1585 38.7944 14.3306C39.9665 15.5027 40.625 17.0924 40.625 18.75C40.625 20.4076 39.9665 21.9973 38.7944 23.1694C37.6223 24.3415 36.0326 25 34.375 25C32.248 25 30.2734 23.7305 29.2393 21.8252L29.2402 21.8242Z" stroke="#B5B5B5" stroke-width="3" stroke-linecap="round" stroke-linejoin="round"/>
</svg>
