<svg width="50" height="50" viewBox="0 0 50 50" fill="none" xmlns="http://www.w3.org/2000/svg">
<path d="M17.8344 23.4375L5.33438 10.9375L3.125 13.1469L13.4156 23.4375H3.125V25C3.125 30.8016 5.42968 36.3656 9.53204 40.468C13.6344 44.5703 19.1984 46.875 25 46.875C30.8016 46.875 36.3656 44.5703 40.468 40.468C44.5703 36.3656 46.875 30.8016 46.875 25V23.4375H17.8344ZM25 43.75C20.2992 43.7442 15.7717 41.9753 12.3119 38.793C8.85213 35.6107 6.71188 31.2464 6.31406 26.5625H43.6875C43.2897 31.2467 41.1492 35.6112 37.6891 38.7935C34.229 41.9759 29.701 43.7446 25 43.75Z" fill="#B5B5B5"/>
<path d="M34.375 12.5C33.5413 12.5012 32.7131 12.6357 31.9219 12.8984C30.7598 11.326 29.246 10.0471 27.5016 9.16404C25.7571 8.28095 23.8303 7.81811 21.875 7.8125C19.0979 7.80443 16.3985 8.7288 14.2094 10.4375L6.89688 3.125L4.6875 5.33437L14.1406 14.7875L15.2453 13.6828C16.1139 12.8095 17.1471 12.1172 18.2851 11.646C19.4231 11.1747 20.6433 10.9339 21.875 10.9375C23.2829 10.9414 24.6719 11.2612 25.9397 11.8735C27.2074 12.4857 28.3216 13.3748 29.2 14.475C28.8666 14.7663 28.5582 15.0852 28.2781 15.4281C27.8395 15.9782 27.2823 16.4222 26.6482 16.7268C26.014 17.0315 25.3192 17.1889 24.6156 17.1875H18.75V20.3125H24.6156C25.7874 20.315 26.9445 20.0528 28.0008 19.5455C29.057 19.0382 29.9851 18.2989 30.7156 17.3828C31.3226 16.6246 32.1501 16.0737 33.0837 15.8061C34.0173 15.5386 35.011 15.5676 35.9274 15.8893C36.8438 16.2109 37.6377 16.8093 38.1993 17.6017C38.7609 18.394 39.0625 19.3413 39.0625 20.3125H42.1875C42.185 18.2413 41.3611 16.2556 39.8965 14.791C38.4319 13.3264 36.4462 12.5025 34.375 12.5Z" fill="#B5B5B5"/>
</svg>
