<svg width="50" height="50" viewBox="0 0 50 50" fill="none" xmlns="http://www.w3.org/2000/svg">
<path d="M25.5 4C19.8328 4 15.2222 8.72211 15.2222 14.5263C15.2222 20.3305 19.8328 25.0526 25.5 25.0526C31.1672 25.0526 35.7778 20.3305 35.7778 14.5263C35.7778 8.72211 31.1672 4 25.5 4ZM25.5 20.8421C22.1001 20.8421 19.3333 18.0084 19.3333 14.5263C19.3333 11.0442 22.1001 8.21053 25.5 8.21053C28.8999 8.21053 31.6667 11.0442 31.6667 14.5263C31.6667 18.0084 28.8999 20.8421 25.5 20.8421ZM44 44V41.8947C44 33.7705 37.5435 27.1579 29.6111 27.1579H21.3889C13.4544 27.1579 7 33.7705 7 41.8947V44H11.1111V41.8947C11.1111 36.0905 15.7217 31.3684 21.3889 31.3684H29.6111C35.2783 31.3684 39.8889 36.0905 39.8889 41.8947V44H44Z" fill="#C0C0C0"/>
<rect x="9" y="40" width="33" height="4" fill="#C0C0C0"/>
</svg>
