<svg width="28" height="28" viewBox="0 0 28 28" fill="none" xmlns="http://www.w3.org/2000/svg">
<path d="M24.0607 22.0822L20.2357 18.2685C21.4698 16.6962 22.1395 14.7547 22.137 12.756C22.137 10.976 21.6091 9.2359 20.6202 7.75585C19.6313 6.27581 18.2257 5.12226 16.5811 4.44107C14.9366 3.75988 13.127 3.58165 11.3812 3.92892C9.63533 4.27618 8.03168 5.13335 6.77301 6.39202C5.51433 7.6507 4.65717 9.25434 4.3099 11.0002C3.96263 12.746 4.14086 14.5556 4.82205 16.2001C5.50324 17.8447 6.65679 19.2503 8.13683 20.2392C9.61688 21.2281 11.3569 21.756 13.137 21.756C15.1357 21.7585 17.0772 21.0888 18.6495 19.8547L22.4632 23.6797C22.5678 23.7852 22.6922 23.8689 22.8293 23.926C22.9664 23.9831 23.1135 24.0125 23.262 24.0125C23.4105 24.0125 23.5575 23.9831 23.6946 23.926C23.8317 23.8689 23.9561 23.7852 24.0607 23.6797C24.1662 23.5752 24.2499 23.4507 24.307 23.3136C24.3641 23.1765 24.3935 23.0295 24.3935 22.881C24.3935 22.7325 24.3641 22.5854 24.307 22.4483C24.2499 22.3112 24.1662 22.1868 24.0607 22.0822ZM6.38697 12.756C6.38697 11.421 6.78285 10.1159 7.52455 9.00589C8.26625 7.89585 9.32045 7.03069 10.5539 6.5198C11.7873 6.00891 13.1445 5.87523 14.4538 6.13568C15.7632 6.39614 16.9659 7.03901 17.9099 7.98302C18.8539 8.92702 19.4968 10.1298 19.7573 11.4391C20.0177 12.7485 19.884 14.1057 19.3732 15.3391C18.8623 16.5725 17.9971 17.6267 16.8871 18.3684C15.777 19.1101 14.472 19.506 13.137 19.506C11.3468 19.506 9.62987 18.7948 8.364 17.529C7.09813 16.2631 6.38697 14.5462 6.38697 12.756Z" fill="#C0C0C0"/>
</svg>
