<svg width="50" height="50" viewBox="0 0 50 50" fill="none" xmlns="http://www.w3.org/2000/svg">
<path d="M41.4583 26.375C41.1243 25.9948 40.9401 25.506 40.9401 25C40.9401 24.4939 41.1243 24.0052 41.4583 23.625L44.125 20.625C44.4188 20.2972 44.6013 19.8848 44.6462 19.4469C44.6911 19.009 44.5962 18.5681 44.375 18.1875L40.2083 10.9792C39.9894 10.599 39.656 10.2976 39.2557 10.1181C38.8554 9.93852 38.4087 9.8899 37.9791 9.97915L34.0625 10.7708C33.5641 10.8738 33.0453 10.7908 32.6039 10.5375C32.1625 10.2842 31.8291 9.87807 31.6666 9.39582L30.3958 5.58332C30.2561 5.16952 29.9898 4.81012 29.6346 4.55591C29.2795 4.30169 28.8534 4.16552 28.4167 4.16665H20.0833C19.629 4.14294 19.1794 4.26858 18.8032 4.52439C18.4271 4.7802 18.1449 5.15211 18 5.58332L16.8333 9.39582C16.6708 9.87807 16.3374 10.2842 15.8961 10.5375C15.4547 10.7908 14.9359 10.8738 14.4375 10.7708L10.4167 9.97915C10.0095 9.92161 9.59436 9.98586 9.22363 10.1638C8.85289 10.3418 8.54311 10.6255 8.33332 10.9792L4.16665 18.1875C3.9399 18.5638 3.83795 19.0022 3.87537 19.44C3.91279 19.8778 4.08766 20.2926 4.37499 20.625L7.02082 23.625C7.35482 24.0052 7.53902 24.4939 7.53902 25C7.53902 25.506 7.35482 25.9948 7.02082 26.375L4.37499 29.375C4.08766 29.7074 3.91279 30.1221 3.87537 30.5599C3.83795 30.9977 3.9399 31.4361 4.16665 31.8125L8.33332 39.0208C8.55227 39.401 8.88565 39.7023 9.28593 39.8819C9.68621 40.0614 10.133 40.1101 10.5625 40.0208L14.4792 39.2291C14.9775 39.1262 15.4963 39.2092 15.9377 39.4625C16.3791 39.7158 16.7125 40.1219 16.875 40.6041L18.1458 44.4166C18.2908 44.8479 18.5729 45.2198 18.9491 45.4756C19.3253 45.7314 19.7748 45.857 20.2292 45.8333H28.5625C28.9992 45.8344 29.4253 45.6983 29.7805 45.4441C30.1356 45.1898 30.4019 44.8304 30.5416 44.4166L31.8125 40.6041C31.975 40.1219 32.3084 39.7158 32.7497 39.4625C33.1911 39.2092 33.7099 39.1262 34.2083 39.2291L38.125 40.0208C38.5545 40.1101 39.0013 40.0614 39.4015 39.8819C39.8018 39.7023 40.1352 39.401 40.3542 39.0208L44.5208 31.8125C44.742 31.4319 44.837 30.991 44.792 30.5531C44.7471 30.1152 44.5647 29.7028 44.2708 29.375L41.4583 26.375ZM38.3541 29.1666L40.0208 31.0416L37.3542 35.6666L34.8958 35.1666C33.3954 34.8599 31.8345 35.1148 30.5096 35.8829C29.1846 36.651 28.1878 37.8788 27.7083 39.3333L26.9167 41.6666H21.5833L20.8333 39.2916C20.3538 37.8372 19.357 36.6093 18.0321 35.8412C16.7071 35.0731 15.1463 34.8183 13.6458 35.125L11.1875 35.625L8.47915 31.0208L10.1458 29.1458C11.1707 27.9999 11.7373 26.5165 11.7373 24.9791C11.7373 23.4418 11.1707 21.9584 10.1458 20.8125L8.47915 18.9375L11.1458 14.3541L13.6042 14.8542C15.1046 15.1609 16.6655 14.906 17.9904 14.1379C19.3154 13.3698 20.3122 12.142 20.7917 10.6875L21.5833 8.33332H26.9167L27.7083 10.7083C28.1878 12.1628 29.1846 13.3906 30.5096 14.1587C31.8345 14.9268 33.3954 15.1817 34.8958 14.875L37.3542 14.375L40.0208 19L38.3541 20.875C37.3407 22.0182 36.7812 23.4931 36.7812 25.0208C36.7812 26.5486 37.3407 28.0234 38.3541 29.1666V29.1666ZM24.25 16.6666C22.6018 16.6666 20.9906 17.1554 19.6202 18.0711C18.2498 18.9867 17.1817 20.2882 16.551 21.811C15.9203 23.3337 15.7552 25.0092 16.0768 26.6257C16.3983 28.2422 17.192 29.7271 18.3574 30.8925C19.5229 32.058 21.0077 32.8516 22.6242 33.1732C24.2407 33.4947 25.9163 33.3297 27.439 32.699C28.9617 32.0682 30.2632 31.0001 31.1789 29.6297C32.0946 28.2593 32.5833 26.6482 32.5833 25C32.5833 22.7898 31.7053 20.6702 30.1425 19.1074C28.5797 17.5446 26.4601 16.6666 24.25 16.6666V16.6666ZM24.25 29.1666C23.4259 29.1666 22.6203 28.9223 21.9351 28.4644C21.2499 28.0066 20.7159 27.3559 20.4005 26.5945C20.0851 25.8331 20.0026 24.9954 20.1634 24.1871C20.3242 23.3789 20.721 22.6364 21.3037 22.0537C21.8864 21.471 22.6289 21.0741 23.4371 20.9134C24.2454 20.7526 25.0831 20.8351 25.8445 21.1505C26.6059 21.4658 27.2566 21.9999 27.7144 22.6851C28.1723 23.3703 28.4167 24.1759 28.4167 25C28.4167 26.1051 27.9777 27.1649 27.1963 27.9463C26.4149 28.7277 25.3551 29.1666 24.25 29.1666Z" fill="#C0C0C0"/>
</svg>
