<svg width="44" height="44" viewBox="0 0 44 44" fill="none" xmlns="http://www.w3.org/2000/svg">
<path d="M34.8528 6.17676H9.67891C8.72512 6.17676 7.8104 6.55565 7.13597 7.23008C6.46153 7.90451 6.08264 8.81924 6.08264 9.77303V34.9469C6.08264 35.9007 6.46153 36.8155 7.13597 37.4899C7.8104 38.1643 8.72512 38.5432 9.67891 38.5432H34.8528C35.8066 38.5432 36.7213 38.1643 37.3958 37.4899C38.0702 36.8155 38.4491 35.9007 38.4491 34.9469V9.77303C38.4491 8.81924 38.0702 7.90451 37.3958 7.23008C36.7213 6.55565 35.8066 6.17676 34.8528 6.17676ZM34.8528 34.9469H9.67891V9.77303H34.8528V34.9469ZM16.8715 31.3507H13.2752V22.36H16.8715V31.3507ZM24.064 31.3507H20.4677V18.7637H24.064V31.3507ZM31.2566 31.3507H27.6603V13.3693H31.2566V31.3507Z" fill="#C0C0C0"/>
</svg>
