<svg width="44" height="44" viewBox="0 0 44 44" fill="none" xmlns="http://www.w3.org/2000/svg">
<path d="M35.1189 5.34224C34.7985 4.81094 34.3466 4.37116 33.8068 4.06533C33.2669 3.75951 32.6574 3.59795 32.0369 3.59625H12.4948C11.2397 3.59625 10.0583 4.26516 9.41277 5.34224L4.54162 13.459C4.37305 13.7385 4.28413 14.0587 4.28449 14.3851C4.29167 16.1207 4.93091 17.7942 6.08262 19.0926V34.1646C6.08262 36.1479 7.69555 37.7609 9.6789 37.7609H34.8528C36.8362 37.7609 38.4491 36.1479 38.4491 34.1646V19.0926C39.6008 17.7942 40.24 16.1207 40.2472 14.3851C40.2476 14.0587 40.1586 13.7385 39.9901 13.459L35.1189 5.34224ZM36.6222 14.8364C36.5112 15.7046 36.0879 16.5026 35.4313 17.0814C34.7748 17.6602 33.9299 17.9801 33.0547 17.9813C31.0713 17.9813 29.4584 16.3684 29.4584 14.3851C29.4584 14.2628 29.4134 14.1549 29.3883 14.0398L29.4242 14.0326L28.0559 7.19253H32.0369L36.6222 14.8364ZM20.1423 7.19253H24.3877L25.8495 14.502C25.7866 16.4296 24.2078 17.9813 22.2659 17.9813C20.3239 17.9813 18.7451 16.4296 18.6822 14.502L20.1423 7.19253ZM12.4948 7.19253H16.4759L15.1093 14.0326L15.1452 14.0398C15.1183 14.1549 15.0733 14.2628 15.0733 14.3851C15.0733 16.3684 13.4604 17.9813 11.477 17.9813C10.6018 17.9801 9.75695 17.6602 9.1004 17.0814C8.44385 16.5026 8.02052 15.7046 7.90953 14.8364L12.4948 7.19253ZM18.6696 34.1646V28.7702H25.8621V34.1646H18.6696ZM29.4584 34.1646V28.7702C29.4584 26.7868 27.8455 25.1739 25.8621 25.1739H18.6696C16.6862 25.1739 15.0733 26.7868 15.0733 28.7702V34.1646H9.6789V21.3223C10.2561 21.4715 10.8513 21.5776 11.477 21.5776C12.498 21.5782 13.5074 21.3608 14.4377 20.94C15.3679 20.5192 16.1977 19.9047 16.8714 19.1375C18.1895 20.6336 20.1207 21.5776 22.2659 21.5776C24.411 21.5776 26.3422 20.6336 27.6603 19.1375C28.334 19.9047 29.1638 20.5192 30.094 20.94C31.0243 21.3608 32.0337 21.5782 33.0547 21.5776C33.6804 21.5776 34.2756 21.4715 34.8528 21.3223V34.1646H29.4584Z" fill="white"/>
</svg>
