<svg width="50" height="50" viewBox="0 0 50 50" fill="none" xmlns="http://www.w3.org/2000/svg">
<path d="M12.5 5.20831C11.9475 5.20831 11.4176 5.42781 11.0269 5.81851C10.6362 6.20921 10.4167 6.73911 10.4167 7.29165V11.4583C10.4167 12.0108 10.6362 12.5408 11.0269 12.9315C11.4176 13.3222 11.9475 13.5416 12.5 13.5416C13.0525 13.5416 13.5824 13.3222 13.9731 12.9315C14.3638 12.5408 14.5833 12.0108 14.5833 11.4583V7.29165C14.5833 6.73911 14.3638 6.20921 13.9731 5.81851C13.5824 5.42781 13.0525 5.20831 12.5 5.20831Z" fill="#B5B5B5"/>
<path fill-rule="evenodd" clip-rule="evenodd" d="M27.0833 44.7917C30.0374 44.7913 32.896 43.745 35.1524 41.8383C37.4088 39.9316 38.9172 37.2877 39.4104 34.375H39.5833C41.7935 34.375 43.9131 33.497 45.4759 31.9342C47.0387 30.3714 47.9167 28.2518 47.9167 26.0417C47.9167 23.8315 47.0387 21.7119 45.4759 20.1491C43.9131 18.5863 41.7935 17.7083 39.5833 17.7083V15.625H2.08334V32.2917C2.08334 35.6069 3.4003 38.7863 5.7445 41.1305C8.08871 43.4747 11.2681 44.7917 14.5833 44.7917H27.0833ZM6.25 19.7917V32.2917C6.25 34.5018 7.12798 36.6214 8.69078 38.1842C10.2536 39.747 12.3732 40.625 14.5833 40.625H27.0833C29.2935 40.625 31.4131 39.747 32.9759 38.1842C34.5387 36.6214 35.4167 34.5018 35.4167 32.2917V19.7917H6.25ZM43.75 26.0417C43.75 27.1467 43.311 28.2065 42.5296 28.9879C41.7482 29.7693 40.6884 30.2083 39.5833 30.2083V21.875C40.6884 21.875 41.7482 22.314 42.5296 23.0954C43.311 23.8768 43.75 24.9366 43.75 26.0417Z" fill="#B5B5B5"/>
<path d="M18.75 7.29165C18.75 6.73911 18.9695 6.20921 19.3602 5.81851C19.7509 5.42781 20.2808 5.20831 20.8333 5.20831C21.3859 5.20831 21.9158 5.42781 22.3065 5.81851C22.6972 6.20921 22.9167 6.73911 22.9167 7.29165V11.4583C22.9167 12.0108 22.6972 12.5408 22.3065 12.9315C21.9158 13.3222 21.3859 13.5416 20.8333 13.5416C20.2808 13.5416 19.7509 13.3222 19.3602 12.9315C18.9695 12.5408 18.75 12.0108 18.75 11.4583V7.29165Z" fill="#B5B5B5"/>
<path d="M29.1667 5.20831C28.6141 5.20831 28.0842 5.42781 27.6935 5.81851C27.3028 6.20921 27.0833 6.73911 27.0833 7.29165V11.4583C27.0833 12.0108 27.3028 12.5408 27.6935 12.9315C28.0842 13.3222 28.6141 13.5416 29.1667 13.5416C29.7192 13.5416 30.2491 13.3222 30.6398 12.9315C31.0305 12.5408 31.25 12.0108 31.25 11.4583V7.29165C31.25 6.73911 31.0305 6.20921 30.6398 5.81851C30.2491 5.42781 29.7192 5.20831 29.1667 5.20831Z" fill="#B5B5B5"/>
</svg>
