<svg width="44" height="44" viewBox="0 0 44 44" fill="none" xmlns="http://www.w3.org/2000/svg">
<path d="M7.19334 32.37H10.79V35.9667H32.37V7.19335H10.79V10.79H7.19334V5.39501C7.19334 4.91807 7.38281 4.46065 7.72006 4.1234C8.05731 3.78615 8.51473 3.59668 8.99167 3.59668H34.1683C34.6453 3.59668 35.1027 3.78615 35.44 4.1234C35.7772 4.46065 35.9667 4.91807 35.9667 5.39501V37.765C35.9667 38.242 35.7772 38.6994 35.44 39.0366C35.1027 39.3739 34.6453 39.5633 34.1683 39.5633H8.99167C8.51473 39.5633 8.05731 39.3739 7.72006 39.0366C7.38281 38.6994 7.19334 38.242 7.19334 37.765V32.37ZM10.79 19.7817H23.3783V23.3783H10.79V28.7733L1.79834 21.58L10.79 14.3867V19.7817Z" fill="#C0C0C0"/>
</svg>
