<svg width="50" height="50" viewBox="0 0 50 50" fill="none" xmlns="http://www.w3.org/2000/svg">
<path d="M32.75 4.62499C33.0462 4.34899 33.4379 4.19873 33.8427 4.20587C34.2475 4.21301 34.6337 4.377 34.92 4.66327C35.2063 4.94955 35.3703 5.33577 35.3774 5.74056C35.3846 6.14536 35.2343 6.53712 34.9583 6.83332L32.4166 9.37499H36.9791C37.6396 9.37499 38.2291 9.79165 38.45 10.4125L41.0541 17.7042C41.1382 17.9399 41.1645 18.1923 41.1306 18.4403C41.0968 18.6883 41.0039 18.9245 40.8598 19.1291C40.7156 19.3337 40.5244 19.5007 40.3023 19.616C40.0802 19.7313 39.8336 19.7915 39.5833 19.7917H37.4083L34.1 40.7292C33.6625 43.7812 31.0604 45.8333 27.9125 45.8333H22.0875C18.9416 45.8333 16.3375 43.7812 15.9041 40.75L12.5916 19.7917H10.4166C10.1664 19.7915 9.91978 19.7313 9.69765 19.616C9.47551 19.5007 9.28432 19.3337 9.14017 19.1291C8.99602 18.9245 8.90312 18.6883 8.8693 18.4403C8.83547 18.1923 8.86171 17.9399 8.9458 17.7042L11.55 10.4125C11.6582 10.109 11.8577 9.8464 12.121 9.66067C12.3843 9.47494 12.6986 9.37516 13.0208 9.37499H27.9958L32.75 4.62499ZM34.2416 19.7917H15.7562L18.9937 40.2854C19.202 41.7333 20.4375 42.7083 22.0875 42.7083H27.9125C29.5646 42.7083 30.8 41.7333 31.0104 40.2625L34.2416 19.7917ZM35.8791 12.5H14.1229L12.6333 16.6667H37.3666L35.8791 12.5Z" fill="#B5B5B5"/>
</svg>
