<svg width="50" height="50" viewBox="0 0 50 50" fill="none" xmlns="http://www.w3.org/2000/svg">
<path d="M40.9583 29.1667C39.5833 33.1667 36.2917 36.5417 31.7917 38.3125L29.1667 39.3334V41.6667H20.8333V39.3334L18.1875 38.2917C13.6875 36.5209 10.3958 33.1459 9.02082 29.1459H40.9583V29.1667ZM25 4.16669C13.5 4.16669 4.16666 13.5 4.16666 25C4.16666 32.6875 9.31249 39.2917 16.6667 42.1875V45.8334H33.3333V42.1875C40.6875 39.2917 45.8333 32.6875 45.8333 25C45.8333 13.5 36.5 4.16669 25 4.16669ZM20.8333 25V8.87502C22.1667 8.54169 23.5625 8.33335 25 8.33335C26.4375 8.33335 27.8333 8.54169 29.1667 8.87502V25H20.8333ZM33.3333 25V10.5834C38.3125 13.4792 41.6667 18.8334 41.6667 25H33.3333ZM8.33332 25C8.33332 18.8542 11.6875 13.4792 16.6667 10.5834V25H8.33332Z" fill="#B5B5B5"/>
</svg>
