<svg width="43" height="43" viewBox="0 0 43 43" fill="none" xmlns="http://www.w3.org/2000/svg">
<path d="M7.16671 5.375C5.17796 5.375 3.58337 6.96958 3.58337 8.95833V16.125C3.58337 18.1137 5.17796 19.7083 7.16671 19.7083H14.3334C16.3221 19.7083 17.9167 18.1137 17.9167 16.125V8.95833C17.9167 6.96958 16.3221 5.375 14.3334 5.375H7.16671ZM14.6917 8.0625L16.5909 9.94375L9.44212 17.0208L4.90921 12.4521L6.82629 10.5708L9.46004 13.2404L14.6917 8.0625ZM7.16671 23.2917C5.17796 23.2917 3.58337 24.8862 3.58337 26.875V34.0417C3.58337 36.0304 5.17796 37.625 7.16671 37.625H14.3334C16.3221 37.625 17.9167 36.0304 17.9167 34.0417V26.875C17.9167 24.8862 16.3221 23.2917 14.3334 23.2917H7.16671ZM7.16671 26.875H14.3334V34.0417H7.16671V26.875ZM21.5 8.95833H39.4167V12.5417H21.5V8.95833ZM21.5 34.0417V30.4583H39.4167V34.0417H21.5ZM21.5 19.7083H39.4167V23.2917H21.5V19.7083Z" fill="white"/>
</svg>
