<svg width="44" height="44" viewBox="0 0 44 44" fill="none" xmlns="http://www.w3.org/2000/svg">
<path d="M22.2659 25.5651C22.6215 25.5651 22.9691 25.4596 23.2648 25.262C23.5605 25.0644 23.791 24.7836 23.9271 24.455C24.0632 24.1265 24.0988 23.7649 24.0294 23.4161C23.9601 23.0673 23.7888 22.7469 23.5373 22.4955C23.2859 22.244 22.9655 22.0727 22.6167 22.0033C22.2678 21.934 21.9063 21.9696 21.5777 22.1057C21.2492 22.2418 20.9683 22.4722 20.7708 22.7679C20.5732 23.0636 20.4677 23.4113 20.4677 23.7669C20.4677 24.2438 20.6572 24.7012 20.9944 25.0384C21.3316 25.3756 21.789 25.5651 22.2659 25.5651ZM31.2565 25.5651C31.6122 25.5651 31.9598 25.4596 32.2555 25.262C32.5512 25.0644 32.7817 24.7836 32.9178 24.455C33.0539 24.1265 33.0895 23.7649 33.0201 23.4161C32.9507 23.0673 32.7795 22.7469 32.528 22.4955C32.2765 22.244 31.9561 22.0727 31.6073 22.0033C31.2585 21.934 30.897 21.9696 30.5684 22.1057C30.2399 22.2418 29.959 22.4722 29.7614 22.7679C29.5639 23.0636 29.4584 23.4113 29.4584 23.7669C29.4584 24.2438 29.6478 24.7012 29.9851 25.0384C30.3223 25.3756 30.7796 25.5651 31.2565 25.5651ZM22.2659 32.7576C22.6215 32.7576 22.9691 32.6522 23.2648 32.4546C23.5605 32.257 23.791 31.9762 23.9271 31.6476C24.0632 31.319 24.0988 30.9575 24.0294 30.6087C23.9601 30.2599 23.7888 29.9395 23.5373 29.688C23.2859 29.4365 22.9655 29.2653 22.6167 29.1959C22.2678 29.1265 21.9063 29.1621 21.5777 29.2982C21.2492 29.4343 20.9683 29.6648 20.7708 29.9605C20.5732 30.2562 20.4677 30.6038 20.4677 30.9595C20.4677 31.4364 20.6572 31.8937 20.9944 32.2309C21.3316 32.5682 21.789 32.7576 22.2659 32.7576ZM31.2565 32.7576C31.6122 32.7576 31.9598 32.6522 32.2555 32.4546C32.5512 32.257 32.7817 31.9762 32.9178 31.6476C33.0539 31.319 33.0895 30.9575 33.0201 30.6087C32.9507 30.2599 32.7795 29.9395 32.528 29.688C32.2765 29.4365 31.9561 29.2653 31.6073 29.1959C31.2585 29.1265 30.897 29.1621 30.5684 29.2982C30.2399 29.4343 29.959 29.6648 29.7614 29.9605C29.5639 30.2562 29.4584 30.6038 29.4584 30.9595C29.4584 31.4364 29.6478 31.8937 29.9851 32.2309C30.3223 32.5682 30.7796 32.7576 31.2565 32.7576ZM13.2752 25.5651C13.6308 25.5651 13.9785 25.4596 14.2742 25.262C14.5699 25.0644 14.8003 24.7836 14.9364 24.455C15.0725 24.1265 15.1081 23.7649 15.0388 23.4161C14.9694 23.0673 14.7981 22.7469 14.5466 22.4955C14.2952 22.244 13.9748 22.0727 13.626 22.0033C13.2772 21.934 12.9156 21.9696 12.5871 22.1057C12.2585 22.2418 11.9777 22.4722 11.7801 22.7679C11.5825 23.0636 11.477 23.4113 11.477 23.7669C11.477 24.2438 11.6665 24.7012 12.0037 25.0384C12.3409 25.3756 12.7983 25.5651 13.2752 25.5651ZM34.8528 7.5837H33.0547V5.78556C33.0547 5.30867 32.8652 4.8513 32.528 4.51409C32.1908 4.17687 31.7334 3.98743 31.2565 3.98743C30.7796 3.98743 30.3223 4.17687 29.9851 4.51409C29.6478 4.8513 29.4584 5.30867 29.4584 5.78556V7.5837H15.0733V5.78556C15.0733 5.30867 14.8839 4.8513 14.5466 4.51409C14.2094 4.17687 13.7521 3.98743 13.2752 3.98743C12.7983 3.98743 12.3409 4.17687 12.0037 4.51409C11.6665 4.8513 11.477 5.30867 11.477 5.78556V7.5837H9.67889C8.24821 7.5837 6.87612 8.15204 5.86447 9.16369C4.85282 10.1753 4.28448 11.5474 4.28448 12.9781V34.5557C4.28448 35.9864 4.85282 37.3585 5.86447 38.3702C6.87612 39.3818 8.24821 39.9502 9.67889 39.9502H34.8528C36.2835 39.9502 37.6556 39.3818 38.6672 38.3702C39.6789 37.3585 40.2472 35.9864 40.2472 34.5557V12.9781C40.2472 11.5474 39.6789 10.1753 38.6672 9.16369C37.6556 8.15204 36.2835 7.5837 34.8528 7.5837ZM36.6509 34.5557C36.6509 35.0326 36.4615 35.49 36.1243 35.8272C35.7871 36.1644 35.3297 36.3539 34.8528 36.3539H9.67889C9.202 36.3539 8.74464 36.1644 8.40742 35.8272C8.0702 35.49 7.88076 35.0326 7.88076 34.5557V18.3725H36.6509V34.5557ZM36.6509 14.7762H7.88076V12.9781C7.88076 12.5012 8.0702 12.0439 8.40742 11.7066C8.74464 11.3694 9.202 11.18 9.67889 11.18H34.8528C35.3297 11.18 35.7871 11.3694 36.1243 11.7066C36.4615 12.0439 36.6509 12.5012 36.6509 12.9781V14.7762ZM13.2752 32.7576C13.6308 32.7576 13.9785 32.6522 14.2742 32.4546C14.5699 32.257 14.8003 31.9762 14.9364 31.6476C15.0725 31.319 15.1081 30.9575 15.0388 30.6087C14.9694 30.2599 14.7981 29.9395 14.5466 29.688C14.2952 29.4365 13.9748 29.2653 13.626 29.1959C13.2772 29.1265 12.9156 29.1621 12.5871 29.2982C12.2585 29.4343 11.9777 29.6648 11.7801 29.9605C11.5825 30.2562 11.477 30.6038 11.477 30.9595C11.477 31.4364 11.6665 31.8937 12.0037 32.2309C12.3409 32.5682 12.7983 32.7576 13.2752 32.7576Z" fill="#C0C0C0"/>
</svg>
