<svg width="25" height="25" viewBox="0 0 25 25" fill="none" xmlns="http://www.w3.org/2000/svg">
<path fill-rule="evenodd" clip-rule="evenodd" d="M7.77606 1.11038C8.99794 1.05413 9.38752 1.04163 12.5 1.04163C15.6125 1.04163 16.0021 1.05517 17.2229 1.11038C18.4438 1.16558 19.2771 1.36038 20.0063 1.64267C20.7698 1.93121 21.4625 2.38225 22.0354 2.96558C22.6188 3.53746 23.0688 4.22913 23.3563 4.99371C23.6396 5.72288 23.8334 6.55621 23.8896 7.77496C23.9459 8.99892 23.9584 9.3885 23.9584 12.5C23.9584 15.6125 23.9448 16.002 23.8896 17.2239C23.8344 18.4427 23.6396 19.276 23.3563 20.0052C23.0688 20.7698 22.618 21.4627 22.0354 22.0354C21.4625 22.6187 20.7698 23.0687 20.0063 23.3562C19.2771 23.6395 18.4438 23.8333 17.225 23.8895C16.0021 23.9458 15.6125 23.9583 12.5 23.9583C9.38752 23.9583 8.99794 23.9448 7.77606 23.8895C6.55731 23.8343 5.72398 23.6395 4.99481 23.3562C4.23015 23.0687 3.53733 22.6179 2.9646 22.0354C2.38167 21.4632 1.93056 20.7707 1.64273 20.0062C1.36044 19.277 1.16669 18.4437 1.11044 17.225C1.05419 16.001 1.04169 15.6114 1.04169 12.5C1.04169 9.38746 1.05523 8.99788 1.11044 7.77704C1.16565 6.55621 1.36044 5.72288 1.64273 4.99371C1.93098 4.22921 2.38244 3.53674 2.96565 2.96454C3.53756 2.38173 4.22968 1.93063 4.99377 1.64267C5.72294 1.36038 6.55627 1.16663 7.77502 1.11038H7.77606ZM17.1302 3.17288C15.9219 3.11767 15.5594 3.10621 12.5 3.10621C9.44064 3.10621 9.07814 3.11767 7.86981 3.17288C6.7521 3.22392 6.14585 3.41038 5.74169 3.56767C5.20731 3.776 4.82502 4.02288 4.42398 4.42392C4.04382 4.79376 3.75125 5.244 3.56773 5.74163C3.41044 6.14579 3.22398 6.75204 3.17294 7.86975C3.11773 9.07808 3.10627 9.44058 3.10627 12.5C3.10627 15.5593 3.11773 15.9218 3.17294 17.1302C3.22398 18.2479 3.41044 18.8541 3.56773 19.2583C3.75106 19.7552 4.04377 20.2062 4.42398 20.576C4.79377 20.9562 5.24481 21.2489 5.74169 21.4323C6.14585 21.5895 6.7521 21.776 7.86981 21.827C9.07814 21.8823 9.4396 21.8937 12.5 21.8937C15.5604 21.8937 15.9219 21.8823 17.1302 21.827C18.2479 21.776 18.8542 21.5895 19.2584 21.4323C19.7927 21.2239 20.175 20.977 20.5761 20.576C20.9563 20.2062 21.249 19.7552 21.4323 19.2583C21.5896 18.8541 21.7761 18.2479 21.8271 17.1302C21.8823 15.9218 21.8938 15.5593 21.8938 12.5C21.8938 9.44058 21.8823 9.07808 21.8271 7.86975C21.7761 6.75204 21.5896 6.14579 21.4323 5.74163C21.224 5.20725 20.9771 4.82496 20.5761 4.42392C20.2062 4.04378 19.756 3.75122 19.2584 3.56767C18.8542 3.41038 18.2479 3.22392 17.1302 3.17288V3.17288ZM11.0365 16.0323C11.8538 16.3725 12.764 16.4184 13.6114 16.1622C14.4589 15.9059 15.1911 15.3634 15.6829 14.6273C16.1748 13.8912 16.3959 13.0071 16.3084 12.1261C16.2209 11.2451 15.8302 10.4218 15.2031 9.79683C14.8034 9.39733 14.32 9.09143 13.7879 8.90115C13.2557 8.71088 12.688 8.64096 12.1255 8.69643C11.5631 8.75191 11.02 8.93139 10.5352 9.22197C10.0505 9.51255 9.63621 9.90698 9.32221 10.3769C9.00821 10.8468 8.8023 11.3805 8.71931 11.9395C8.63631 12.4985 8.6783 13.069 8.84225 13.6099C9.0062 14.1507 9.28802 14.6485 9.66744 15.0674C10.0469 15.4862 10.5144 15.8158 11.0365 16.0323ZM8.33544 8.33538C8.88234 7.78847 9.5316 7.35465 10.2462 7.05867C10.9607 6.76269 11.7266 6.61035 12.5 6.61035C13.2735 6.61035 14.0393 6.76269 14.7539 7.05867C15.4684 7.35465 16.1177 7.78847 16.6646 8.33538C17.2115 8.88228 17.6453 9.53154 17.9413 10.2461C18.2373 10.9607 18.3896 11.7265 18.3896 12.5C18.3896 13.2734 18.2373 14.0393 17.9413 14.7538C17.6453 15.4684 17.2115 16.1176 16.6646 16.6645C15.5601 17.7691 14.062 18.3896 12.5 18.3896C10.938 18.3896 9.43995 17.7691 8.33544 16.6645C7.23092 15.56 6.61041 14.062 6.61041 12.5C6.61041 10.9379 7.23092 9.43989 8.33544 8.33538V8.33538ZM19.6959 7.48746C19.8314 7.35961 19.9399 7.20588 20.0149 7.03535C20.09 6.86482 20.13 6.68097 20.1327 6.49468C20.1355 6.30839 20.1008 6.12345 20.0307 5.9508C19.9607 5.77816 19.8567 5.62132 19.725 5.48958C19.5932 5.35784 19.4364 5.25387 19.2638 5.18383C19.0911 5.11379 18.9062 5.0791 18.7199 5.08182C18.5336 5.08453 18.3497 5.1246 18.1792 5.19964C18.0087 5.27469 17.8549 5.38318 17.7271 5.51871C17.4785 5.78228 17.3423 6.13238 17.3476 6.49468C17.3529 6.85698 17.4992 7.20296 17.7554 7.45917C18.0116 7.71538 18.3576 7.86166 18.7199 7.86694C19.0822 7.87222 19.4323 7.73609 19.6959 7.48746V7.48746Z" fill="white"/>
</svg>
